<?xml version="1.0" standalone="no"?>
<!DOCTYPE svg PUBLIC "-//W3C//DTD SVG 20010904//EN"
 "http://www.w3.org/TR/2001/REC-SVG-20010904/DTD/svg10.dtd">
<svg version="1.0" xmlns="http://www.w3.org/2000/svg"
 width="4096.000000pt" height="4096.000000pt" viewBox="0 0 4096.000000 4096.000000"
 preserveAspectRatio="xMidYMid meet">
<metadata>
Created by potrace 1.11, written by Peter Selinger 2001-2013
</metadata>
<g transform="translate(0.000000,4096.000000) scale(0.100000,-0.100000)"
fill="#000000" stroke="none">
<path d="M34339 29711 c0 -3 -1 -741 -1 -1638 l-1 -1633 -26 -1 c-34 -1 -3522
-1 -3538 0 -10 1 -13 320 -13 1559 l0 1559 -1112 -1 -1111 -1 0 -1047 c0 -953
-1 -1048 -16 -1049 -20 -1 -4363 -1 -4373 0 -5 1 -8 473 -8 1049 l0 1049
-1110 0 c-1006 0 -1110 -2 -1111 -16 -5 -93 0 -5852 5 -5896 14 -131 52 -247
126 -395 62 -126 195 -336 284 -452 12 -14 32 -41 46 -59 203 -267 535 -595
815 -806 356 -268 643 -411 896 -447 88 -13 5479 -14 5587 -2 35 4 73 9 85 12
12 2 38 7 57 10 52 8 106 22 195 51 274 88 477 261 599 508 44 90 91 226 102
294 3 20 8 39 9 42 2 3 7 28 11 55 3 27 9 58 12 69 3 11 7 425 9 920 2 495 4
938 6 985 l2 85 1783 0 c1577 0 1783 -2 1786 -15 2 -8 4 -796 4 -1751 0 -955
2 -1754 6 -1775 26 -153 175 -269 426 -334 56 -15 68 -17 194 -36 21 -3 46 -7
55 -9 40 -8 297 -18 431 -18 135 0 288 8 370 18 19 3 58 7 85 10 28 4 57 8 65
10 8 2 31 7 50 10 132 21 315 82 385 129 48 31 101 92 126 143 l24 48 3 4386
2 4386 -1110 0 c-610 0 -1110 -3 -1111 -6z m-5803 -5243 l1 -1088 -21 -1
c-139 -4 -3852 0 -3911 5 -133 11 -262 53 -321 103 -52 44 -108 151 -119 226
-3 18 -9 59 -14 92 -9 59 -16 1737 -7 1746 2 2 991 4 2198 4 l2193 0 1 -1087z"/>
<path d="M17002 21241 l3 -8276 24 -49 c63 -126 253 -236 471 -271 19 -3 42
-8 50 -10 8 -2 42 -7 75 -11 33 -3 62 -8 65 -9 11 -7 269 -18 405 -18 130 0
340 9 410 18 71 9 131 18 150 21 11 2 34 7 50 9 96 17 252 73 317 114 61 39
124 106 151 161 l22 45 0 8275 0 8275 -1098 1 -1097 1 2 -8276z"/>
<path d="M13060 27028 c0 -1258 -3 -2288 -7 -2289 -5 0 -684 -1 -1511 -1
l-1502 -1 2 -971 3 -971 1505 0 1505 0 5 -4815 5 -4815 24 -48 c107 -215 462
-321 1076 -320 147 0 351 9 410 18 17 3 48 7 70 10 89 13 113 17 190 36 176
44 323 144 376 255 l24 49 0 8075 0 8075 -1087 1 -1088 1 0 -2289z"/>
<path d="M6220 27066 c-1 -1260 -4 -1642 -15 -1806 -3 -47 -8 -121 -10 -165
-5 -92 -19 -243 -30 -345 -2 -19 -7 -64 -11 -100 -3 -36 -7 -72 -9 -80 -2 -8
-6 -44 -10 -80 -4 -36 -9 -74 -11 -85 -2 -10 -6 -37 -9 -60 -3 -22 -10 -65
-15 -95 -5 -30 -12 -75 -15 -100 -3 -25 -7 -52 -10 -60 -2 -8 -6 -31 -9 -50
-7 -41 -9 -53 -43 -225 -14 -71 -27 -140 -29 -153 -5 -26 -52 -238 -58 -262
-3 -8 -14 -55 -25 -105 -12 -49 -23 -97 -25 -105 -81 -320 -139 -517 -223
-765 -42 -121 -80 -231 -86 -245 -5 -14 -11 -29 -13 -35 -5 -22 -157 -413
-174 -450 -5 -11 -34 -78 -63 -150 -109 -261 -194 -445 -359 -775 -141 -282
-193 -380 -319 -603 -24 -43 -57 -102 -73 -130 -44 -79 -263 -443 -314 -522
-86 -133 -370 -560 -419 -630 -63 -89 -155 -217 -179 -249 -11 -13 -28 -36
-39 -52 -90 -125 -435 -564 -482 -614 -95 -100 -113 -236 -47 -375 63 -135
250 -333 479 -510 21 -16 61 -48 89 -70 284 -227 526 -385 650 -425 58 -19
143 -15 208 10 111 41 194 119 429 400 89 107 127 154 196 240 6 8 32 40 56
70 138 173 557 759 557 780 0 4 3 10 8 12 29 12 427 666 617 1013 15 28 40 73
55 100 95 172 308 595 399 792 32 70 75 163 95 206 20 42 36 79 36 82 0 3 13
33 30 68 89 189 259 622 350 897 26 79 81 252 86 270 23 93 100 360 105 360 3
0 13 -35 23 -77 28 -117 118 -409 179 -578 259 -715 747 -1688 1250 -2495 144
-230 405 -623 454 -685 5 -5 19 -26 33 -45 68 -99 360 -483 379 -500 4 -3 18
-21 33 -42 15 -20 33 -42 40 -50 7 -7 56 -63 108 -123 145 -169 327 -346 385
-375 41 -20 65 -25 130 -25 95 0 136 18 337 150 511 337 824 624 917 845 32
76 39 167 16 227 -10 27 -45 82 -79 123 -33 41 -66 82 -73 90 -6 8 -27 33 -45
56 -134 164 -323 415 -510 674 -81 113 -151 210 -155 215 -4 6 -32 46 -62 90
-30 44 -57 82 -60 85 -3 3 -10 13 -16 22 -5 9 -98 148 -206 310 -108 161 -246
374 -306 473 -117 192 -119 194 -255 440 -49 87 -94 165 -100 172 -6 7 -7 13
-3 13 5 0 1 8 -7 18 -8 9 -75 139 -149 287 -124 248 -170 345 -237 495 -13 30
-32 73 -42 95 -110 244 -277 677 -376 974 -88 265 -217 700 -230 771 -1 8 -14
58 -27 110 -20 76 -61 249 -82 350 -12 56 -55 286 -64 340 -15 93 -23 142 -26
165 -2 11 -9 58 -15 105 -23 181 -27 219 -35 305 -3 39 -8 86 -10 105 -3 19
-7 75 -10 123 -3 48 -7 119 -10 156 -11 157 -15 563 -15 1777 l0 1281 -1200 0
-1200 0 0 -1271z"/>
<path d="M24979 19791 c0 -8 0 -1747 0 -1786 l1 -30 4579 0 4578 0 -1 -709 -1
-709 -4577 0 -4578 0 -1 -21 c0 -12 -1 -793 -1 -1736 0 -1187 3 -1735 11
-1780 25 -153 92 -306 215 -490 204 -308 505 -614 871 -886 283 -210 498 -316
690 -340 28 -4 2235 -7 4905 -8 3902 -2 4867 0 4919 11 212 42 320 218 360
583 9 86 8 577 -2 616 -3 12 -8 45 -12 75 -34 272 -152 465 -319 522 -21 7
-1430 11 -4531 12 -2475 1 -4518 5 -4539 9 -148 25 -247 89 -295 191 -49 104
-50 126 -48 794 l2 626 4575 0 4575 0 2 2310 c1 1384 -2 2335 -8 2373 -12 88
-51 195 -84 234 -53 63 -135 103 -260 129 -47 10 -1241 13 -5542 14 -3016 1
-5483 -1 -5484 -4z"/>
</g>
</svg>
