<?xml version="1.0" standalone="no"?>
<!DOCTYPE svg PUBLIC "-//W3C//DTD SVG 20010904//EN"
 "http://www.w3.org/TR/2001/REC-SVG-20010904/DTD/svg10.dtd">
<svg version="1.0" xmlns="http://www.w3.org/2000/svg"
 width="4096.000000pt" height="4096.000000pt" viewBox="0 0 4096.000000 4096.000000"
 preserveAspectRatio="xMidYMid meet">
<metadata>
Created by potrace 1.11, written by Peter Selinger 2001-2013
</metadata>
<g transform="translate(0.000000,4096.000000) scale(0.100000,-0.100000)"
fill="#000000" stroke="none">
<path d="M9019 36116 c-2 -2 -57 -7 -121 -10 -65 -4 -128 -9 -140 -11 -22 -3
-99 -12 -178 -21 -19 -2 -48 -6 -65 -9 -16 -2 -48 -7 -70 -10 -295 -43 -769
-174 -992 -276 -24 -10 -45 -19 -49 -19 -26 0 -416 -196 -554 -278 -112 -68
-267 -168 -280 -182 -3 -3 -21 -17 -40 -30 -33 -23 -162 -123 -186 -145 -6 -5
-42 -37 -80 -70 -316 -276 -612 -650 -810 -1020 -52 -99 -104 -203 -104 -210
0 -2 -12 -30 -26 -61 -105 -230 -202 -550 -259 -854 -5 -30 -18 -116 -20 -135
-1 -11 -5 -45 -9 -75 -13 -104 -15 -125 -21 -205 -10 -143 -16 -260 -30 -550
-23 -478 -36 -1849 -21 -2125 12 -217 36 -401 81 -624 59 -290 192 -646 337
-901 210 -367 454 -640 833 -933 6 -4 26 -19 45 -32 19 -14 37 -27 40 -30 8
-9 220 -144 275 -176 27 -16 63 -37 80 -46 62 -37 323 -167 385 -193 36 -15
79 -33 95 -40 60 -27 112 -47 195 -76 47 -17 92 -33 100 -36 8 -4 18 -7 23 -8
4 -2 9 -4 12 -5 3 -1 8 -3 13 -4 4 -1 52 -16 107 -34 178 -56 442 -121 630
-157 62 -11 272 -45 315 -51 25 -3 56 -7 70 -9 14 -3 52 -7 85 -11 33 -3 71
-7 84 -9 12 -2 60 -7 105 -10 44 -4 92 -8 106 -11 14 -2 90 -7 170 -11 192
-10 4924 -10 5065 0 205 15 306 24 440 42 61 9 124 17 140 19 17 2 48 7 70 11
50 9 71 13 115 21 19 4 44 8 55 11 11 2 40 8 65 13 146 29 334 77 490 124 47
15 92 28 100 30 41 10 326 118 385 145 36 17 69 31 72 31 10 0 300 148 342
174 22 14 43 26 46 26 3 0 58 34 122 76 418 272 734 576 995 959 67 98 101
154 178 290 36 62 106 206 130 266 12 30 27 68 35 84 21 49 37 94 34 97 -1 2
3 13 10 26 18 33 80 243 103 347 11 49 22 99 24 110 3 11 6 32 9 47 2 15 8 51
14 80 6 29 13 78 17 108 3 30 8 66 9 80 17 127 20 405 20 1660 0 1273 -4 1564
-20 1645 -2 11 -7 43 -10 70 -5 41 -22 135 -51 279 -20 102 -98 339 -162 490
-276 660 -784 1240 -1420 1621 -120 72 -167 98 -287 160 -129 66 -393 185
-412 185 -4 0 -20 7 -35 14 -43 23 -370 131 -498 165 -111 29 -352 86 -414 97
-133 23 -260 43 -306 48 -30 4 -73 9 -95 13 -22 3 -51 7 -65 8 -43 4 -172 16
-235 22 -63 7 -5199 16 -5206 9z m4461 -2528 c14 -4 57 -9 97 -13 131 -11 296
-36 398 -60 33 -8 76 -17 95 -20 75 -13 341 -109 456 -165 401 -195 678 -499
820 -903 26 -74 78 -275 88 -337 18 -110 27 -183 34 -259 9 -110 9 -1313 0
-1407 -16 -163 -71 -368 -134 -499 -136 -287 -451 -590 -795 -767 -352 -181
-657 -266 -1154 -324 -22 -2 -57 -6 -78 -9 -21 -2 -81 -8 -135 -12 -124 -10
-3370 -10 -3477 -1 -44 4 -109 10 -145 13 -60 5 -226 27 -310 41 -104 17 -331
77 -420 111 -8 3 -20 7 -27 8 -6 2 -62 28 -125 59 -129 64 -240 143 -346 248
-62 61 -98 103 -200 233 -21 27 -117 196 -142 250 -53 117 -120 330 -134 425
-61 437 -78 1029 -41 1445 12 142 16 183 20 210 3 17 7 46 9 65 4 32 19 118
31 180 3 14 7 36 10 50 20 105 101 367 142 459 14 31 30 67 36 81 7 14 35 67
64 118 181 316 442 526 806 646 176 59 267 79 477 105 149 18 164 20 291 27
68 3 126 8 128 10 7 6 3635 -2 3661 -8z"/>
<path d="M23920 31260 l0 -4620 6380 0 6380 0 0 1180 0 1180 -4860 0 -4860 0
0 3440 0 3440 -1520 0 -1520 0 0 -4620z"/>
<path d="M10080 12300 l0 -9140 1500 0 1500 0 0 9140 0 9140 -1500 0 -1500 0
0 -9140z"/>
<path d="M27480 12360 l0 -9040 1440 0 1440 0 0 4660 0 4660 1380 0 1380 0 0
1420 0 1420 -1380 0 -1380 0 0 2960 0 2960 -1440 0 -1440 0 0 -9040z"/>
</g>
</svg>
