<?xml version="1.0" standalone="no"?>
<!DOCTYPE svg PUBLIC "-//W3C//DTD SVG 20010904//EN"
 "http://www.w3.org/TR/2001/REC-SVG-20010904/DTD/svg10.dtd">
<svg version="1.0" xmlns="http://www.w3.org/2000/svg"
 width="4096.000000pt" height="4096.000000pt" viewBox="0 0 4096.000000 4096.000000"
 preserveAspectRatio="xMidYMid meet">
<metadata>
Created by potrace 1.11, written by Peter Selinger 2001-2013
</metadata>
<g transform="translate(0.000000,4096.000000) scale(0.100000,-0.100000)"
fill="#000000" stroke="none">
<path d="M9850 30080 c-52 -10 -115 -21 -140 -24 -25 -3 -55 -8 -66 -10 -12
-2 -39 -7 -60 -10 -22 -4 -109 -18 -194 -32 -85 -14 -168 -27 -185 -30 -16 -2
-41 -6 -55 -9 -14 -3 -38 -7 -55 -9 -16 -3 -70 -12 -120 -20 -49 -8 -108 -18
-130 -21 -23 -3 -52 -8 -65 -10 -14 -3 -41 -7 -60 -10 -19 -3 -46 -7 -60 -10
-14 -3 -44 -8 -66 -11 -23 -2 -53 -7 -65 -10 -13 -2 -59 -10 -101 -16 -87 -13
-83 -8 -69 -103 14 -89 19 -124 27 -190 3 -33 8 -67 9 -75 2 -9 6 -43 10 -75
4 -33 8 -71 11 -85 2 -14 6 -55 9 -91 3 -36 7 -75 10 -87 2 -12 7 -58 10 -101
3 -44 8 -89 10 -100 2 -11 7 -57 10 -103 4 -46 8 -99 10 -118 2 -19 7 -82 10
-140 4 -58 9 -121 10 -140 27 -276 27 -1150 0 -1370 -1 -14 -6 -61 -10 -104
-4 -43 -8 -86 -10 -95 -1 -9 -6 -45 -10 -81 -7 -66 -10 -83 -20 -132 -4 -15
-8 -39 -10 -55 -6 -48 -15 -95 -36 -183 -11 -47 -22 -96 -25 -110 -14 -64 -88
-290 -115 -348 -11 -24 -27 -62 -36 -85 -9 -23 -19 -46 -23 -52 -4 -5 -25 -41
-46 -80 -69 -127 -187 -279 -423 -545 -140 -158 -478 -488 -646 -631 -22 -19
-47 -41 -55 -48 -25 -24 -301 -243 -365 -289 -186 -134 -267 -189 -419 -286
-93 -60 -186 -117 -205 -128 -20 -10 -54 -30 -76 -43 -22 -14 -71 -41 -110
-61 -38 -20 -74 -40 -80 -44 -5 -4 -82 -44 -170 -88 -152 -76 -227 -112 -340
-161 -27 -13 -63 -29 -80 -36 -141 -63 -415 -167 -640 -243 -140 -47 -213 -70
-392 -122 l-72 -21 43 -127 c24 -70 87 -257 140 -417 52 -159 100 -303 106
-320 41 -122 99 -294 165 -495 43 -129 79 -237 81 -239 10 -12 805 253 959
319 11 5 61 25 110 45 50 20 99 40 110 45 11 5 97 43 191 84 95 41 180 79 190
85 11 5 89 44 174 85 168 82 414 214 530 285 19 11 42 24 50 28 46 21 415 260
550 356 135 95 357 264 435 329 263 219 423 366 635 583 113 115 124 128 224
239 33 38 66 74 71 80 29 31 174 206 200 241 16 22 32 42 35 45 28 25 353 477
364 505 2 6 13 -2 25 -18 13 -15 28 -33 34 -40 7 -6 39 -46 72 -87 33 -41 69
-86 81 -100 12 -14 68 -79 124 -145 217 -253 431 -484 700 -752 138 -139 371
-363 456 -440 18 -15 69 -62 115 -104 132 -120 342 -300 544 -468 19 -16 254
-204 285 -228 8 -6 40 -31 70 -56 83 -66 476 -357 550 -408 36 -24 67 -46 70
-49 7 -8 117 -84 312 -217 l168 -114 67 103 c36 57 103 159 148 228 45 69 175
269 290 445 114 176 229 353 256 393 27 40 49 77 49 81 0 5 3 11 8 13 4 2 27
35 52 73 25 39 48 72 52 73 23 10 -2 36 -79 83 -404 242 -836 533 -1183 797
-162 123 -204 156 -210 162 -3 3 -54 45 -115 94 -98 79 -198 162 -229 191 -6
6 -24 21 -41 34 -16 12 -68 57 -115 100 -47 43 -105 95 -130 117 -245 216
-726 709 -965 989 -33 38 -72 84 -87 100 -124 141 -386 475 -558 711 -121 166
-111 134 -96 294 5 53 10 114 21 250 3 36 7 103 10 150 2 47 7 126 10 175 27
498 18 1197 -21 1591 -2 29 -7 78 -9 110 -5 70 -12 146 -19 194 -9 63 -16 124
-22 175 -3 28 -7 61 -9 75 -2 14 -7 45 -10 70 -3 25 -13 86 -21 135 -9 50 -17
101 -19 115 -8 56 -69 360 -83 415 -10 37 -21 38 -142 15z"/>
<path d="M15280 28220 l0 -1740 -1160 0 -1160 0 0 -840 0 -840 1160 0 1160 0
0 -3580 0 -3580 840 0 840 0 0 6160 0 6160 -840 0 -840 0 0 -1740z"/>
<path d="M18640 23800 l0 -6160 840 0 840 0 0 6160 0 6160 -840 0 -840 0 0
-6160z"/>
<path d="M22760 25800 l0 -4160 4660 0 4660 0 0 1580 0 1580 840 0 840 0 0
-3580 0 -3580 840 0 840 0 0 6160 0 6160 -840 0 -840 0 0 -1740 0 -1740 -840
0 -840 0 0 1740 0 1740 -820 0 -820 0 0 -1660 0 -1660 -3000 0 -3000 0 0 1660
0 1660 -840 0 -840 0 0 -4160z m7680 -1640 l0 -840 -3000 0 -3000 0 0 840 0
840 3000 0 3000 0 0 -840z"/>
<path d="M27600 15480 l0 -840 2660 0 2660 0 0 -666 0 -665 -77 5 c-43 3 -100
8 -128 10 -61 6 -177 15 -305 22 -52 2 -124 7 -160 9 -197 13 -504 20 -900 20
-500 -1 -654 -7 -1050 -41 -108 -9 -206 -20 -270 -30 -19 -3 -55 -7 -80 -10
-25 -2 -56 -7 -70 -9 -14 -3 -43 -8 -65 -10 -22 -3 -51 -7 -65 -10 -14 -3 -34
-7 -45 -9 -275 -52 -245 -45 -420 -89 -421 -106 -773 -252 -1049 -435 -140
-94 -169 -117 -301 -247 -186 -183 -258 -285 -394 -560 -153 -309 -230 -623
-226 -921 2 -152 8 -202 40 -349 90 -423 403 -874 870 -1255 44 -36 82 -67 85
-70 3 -3 21 -17 40 -30 19 -13 37 -27 40 -30 6 -7 130 -95 190 -135 25 -16 47
-32 50 -35 6 -7 199 -126 320 -197 162 -96 413 -217 583 -279 156 -57 403
-138 454 -149 10 -2 61 -15 113 -29 52 -14 113 -28 135 -32 22 -3 43 -8 46
-10 7 -4 182 -38 249 -49 19 -3 46 -7 60 -10 14 -2 43 -7 65 -9 22 -3 58 -8
80 -11 41 -5 71 -8 190 -20 39 -4 80 -8 91 -10 39 -6 367 -18 494 -18 217 0
572 19 735 39 17 2 53 6 80 9 28 3 66 8 85 10 19 3 55 7 80 10 25 3 52 7 60
10 8 2 42 7 74 10 33 3 62 8 65 9 3 2 29 7 56 10 28 4 131 23 230 42 99 19
191 38 205 40 14 3 54 12 90 20 36 9 72 17 80 19 8 2 38 9 65 15 28 6 57 13
65 15 8 2 67 18 130 35 63 17 124 33 136 35 41 9 410 127 454 145 25 10 89 35
142 54 525 193 1117 534 1477 851 66 58 64 52 32 98 -25 37 -257 408 -629
1007 -63 102 -129 208 -147 235 -18 28 -41 64 -52 82 l-19 32 -60 -47 c-170
-136 -423 -305 -609 -408 -83 -45 -326 -167 -385 -193 -408 -179 -755 -289
-1265 -401 -77 -17 -153 -33 -170 -35 -16 -3 -64 -12 -105 -20 -41 -8 -93 -17
-115 -20 -22 -4 -65 -10 -95 -15 -77 -13 -107 -17 -170 -25 -30 -4 -66 -8 -80
-10 -14 -2 -59 -7 -100 -10 -41 -4 -82 -8 -90 -10 -30 -6 -317 -17 -420 -17
-107 0 -344 10 -377 16 -10 2 -54 7 -98 11 -44 4 -82 8 -85 10 -3 2 -25 6 -50
9 -124 17 -314 64 -472 117 -217 72 -461 200 -683 359 -321 228 -471 435 -461
635 5 107 22 154 90 249 121 169 338 299 641 385 97 27 241 59 295 66 25 3 52
7 60 10 15 4 26 6 175 24 281 36 820 52 1215 36 122 -4 347 -16 400 -20 25 -2
90 -6 145 -10 55 -3 120 -8 145 -10 25 -2 77 -7 115 -10 39 -3 95 -8 125 -11
30 -3 75 -8 100 -10 119 -9 245 -24 275 -31 39 -10 441 -11 505 -2 114 16 133
19 200 35 211 48 448 161 595 284 215 180 331 443 390 890 4 30 10 805 12
1723 l4 1667 -3501 0 -3500 0 0 -840z"/>
</g>
</svg>
