<svg id="Layer_1" data-name="Layer 1" xmlns="http://www.w3.org/2000/svg" viewBox="0 0 1024 1024"><title>Artboard 1</title><path d="M257.5,598.57a196.35,196.35,0,0,1-19.5-23.5,351.77,351.77,0,0,1-20.25-31.5q-9.75-17-17.75-34.75a179.59,179.59,0,0,1-11.5-32.75,236.85,236.85,0,0,1-12.5,36.5,391.49,391.49,0,0,1-17.5,35.5,344.43,344.43,0,0,1-20,31.75A277.9,277.9,0,0,1,118,605.57q-5,5-9.75,3.75T91,598.07q-19.5-14.49-13-22.5a374.61,374.61,0,0,0,39-57,331.1,331.1,0,0,0,27-62.5,311.86,311.86,0,0,0,8.5-38,249.59,249.59,0,0,0,3-39v-63.5h60v63.5a218.93,218.93,0,0,0,6,51.75,291.7,291.7,0,0,0,16,47.75,318,318,0,0,0,27.75,50.75,468,468,0,0,0,29.25,39.75q6,7.5-12,21.5-12,9-16.25,10.75T257.5,598.57Zm123.5,94q0,5.49-6.25,8.5t-20.75,3q-27.51,0-27.5-11.5V454.07H251v-48.5h75.5V291.07H381Zm44-406.5h55v411.5q0,11.49-27.5,11.5T425,697.57Z"/><path d="M603.49,285.07v52.5h110v-52.5H769v78h89.5v-82H914v217q0,6.51-8.25,9a68.47,68.47,0,0,1-19.75,2.5q-27.5,0-27.5-11.5v-87H769v43q0,31.5-30,33H605.49q-8.5,0-19.25-7a101.43,101.43,0,0,1-18.75-15.5,97.46,97.46,0,0,1-13.5-17q-6-9.49-6-16.5v-146Zm110,154.5v-54.5h-110v39.5q0,8.51,3,11.75t12,3.25Zm-41.5,302q-7,0-14.75-5a107.35,107.35,0,0,1-14.75-11.5,82.48,82.48,0,0,1-13-15.25q-5-7.76-5-14.25v-85.5h229v-35.5h-229v-45.5H894q8.5,0,11.75,2.75T909,543.07v112.5H680v29.5q0,11,11,11h221.5q11.5,0,11.5,23,0,13-3,17.75a9.51,9.51,0,0,1-8.5,4.75Z"/></svg>